<svg xmlns="http://www.w3.org/2000/svg" width="1920" height="1080"><path d="M666,1313L208,1335L1184,1346Z" fill="#b37027" stroke="#b37027" stroke-width="1.51"/><path d="M352,-258L1050,-238L1613,-232Z" fill="#ffc885" stroke="#ffc885" stroke-width="1.51"/><path d="M1609,1308L1483,1345L1941,1309Z" fill="#923506" stroke="#923506" stroke-width="1.51"/><path d="M1613,-232L1737,-219L1947,-227Z" fill="#dd9c6f" stroke="#dd9c6f" stroke-width="1.51"/><path d="M1941,1309L1483,1345L2094,1326Z" fill="#852e06" stroke="#852e06" stroke-width="1.51"/><path d="M2052,561L2008,668L2112,751Z" fill="#b55511" stroke="#b55511" stroke-width="1.51"/><path d="M2052,561L2112,751L2115,537Z" fill="#b35813" stroke="#b35813" stroke-width="1.51"/><path d="M1613,-232L1947,-227L2123,-230Z" fill="#d2976d" stroke="#d2976d" stroke-width="1.51"/><path d="M352,-258L1613,-232L2123,-230Z" fill="#fab279" stroke="#fab279" stroke-width="1.51"/><path d="M1986,471L2115,537L2129,319Z" fill="#b96a1f" stroke="#b96a1f" stroke-width="1.51"/><path d="M1984,380L1986,471L2129,319Z" fill="#bd7124" stroke="#bd7124" stroke-width="1.51"/><path d="M2079,858L2014,971L2137,1056Z" fill="#9e3a05" stroke="#9e3a05" stroke-width="1.51"/><path d="M2069,1208L2094,1326L2137,1056Z" fill="#7f2d06" stroke="#7f2d06" stroke-width="1.51"/><path d="M2112,751L2079,858L2137,1056Z" fill="#a23e07" stroke="#a23e07" stroke-width="1.51"/><path d="M2115,537L2112,751L2137,1056Z" fill="#a9470c" stroke="#a9470c" stroke-width="1.51"/><path d="M2129,319L2115,537L2143,251Z" fill="#b47026" stroke="#b47026" stroke-width="1.51"/><path d="M2123,-230L1979,-73L2144,-44Z" fill="#be8e61" stroke="#be8e61" stroke-width="1.51"/><path d="M2143,251L2115,537L2173,96Z" fill="#b47630" stroke="#b47630" stroke-width="1.51"/><path d="M2115,537L2137,1056L2173,96Z" fill="#b15b16" stroke="#b15b16" stroke-width="1.51"/><path d="M2144,-44L1999,75L2173,96Z" fill="#ba8751" stroke="#ba8751" stroke-width="1.51"/><path d="M1999,75L2143,251L2173,96Z" fill="#b98247" stroke="#b98247" stroke-width="1.51"/><path d="M2123,-230L2144,-44L2173,96Z" fill="#b88a5b" stroke="#b88a5b" stroke-width="1.51"/><path d="M1947,-227L1979,-73L2123,-230Z" fill="#c59167" stroke="#c59167" stroke-width="1.51"/><path d="M1955,1095L2069,1208L2137,1056Z" fill="#8d3105" stroke="#8d3105" stroke-width="1.51"/><path d="M1999,75L1937,145L2143,251Z" fill="#c08445" stroke="#c08445" stroke-width="1.51"/><path d="M1979,-73L1999,75L2144,-44Z" fill="#c18c57" stroke="#c18c57" stroke-width="1.51"/><path d="M1984,380L2129,319L2143,251Z" fill="#b9762c" stroke="#b9762c" stroke-width="1.51"/><path d="M1937,145L1984,380L2143,251Z" fill="#bf7d36" stroke="#bf7d36" stroke-width="1.51"/><path d="M2014,971L1955,1095L2137,1056Z" fill="#983605" stroke="#983605" stroke-width="1.51"/><path d="M1986,471L2052,561L2115,537Z" fill="#ba6318" stroke="#ba6318" stroke-width="1.51"/><path d="M1988,750L2079,858L2112,751Z" fill="#ad490b" stroke="#ad490b" stroke-width="1.51"/><path d="M2008,668L1988,750L2112,751Z" fill="#b44f0d" stroke="#b44f0d" stroke-width="1.51"/><path d="M1937,145L1859,278L1984,380Z" fill="#c87f35" stroke="#c87f35" stroke-width="1.51"/><path d="M2069,1208L1941,1309L2094,1326Z" fill="#7a2b06" stroke="#7a2b06" stroke-width="1.51"/><path d="M1924,898L2014,971L2079,858Z" fill="#a94006" stroke="#a94006" stroke-width="1.51"/><path d="M1988,750L1924,898L2079,858Z" fill="#af4609" stroke="#af4609" stroke-width="1.51"/><path d="M1955,1095L1858,1224L2069,1208Z" fill="#8e3105" stroke="#8e3105" stroke-width="1.51"/><path d="M1858,1224L1941,1309L2069,1208Z" fill="#842f06" stroke="#842f06" stroke-width="1.51"/><path d="M1986,471L2008,668L2052,561Z" fill="#bc5f15" stroke="#bc5f15" stroke-width="1.51"/><path d="M1696,1263L1609,1308L1941,1309Z" fill="#903305" stroke="#903305" stroke-width="1.51"/><path d="M1826,474L1794,580L1986,471Z" fill="#cb6a18" stroke="#cb6a18" stroke-width="1.51"/><path d="M1856,787L1924,898L1988,750Z" fill="#b84a09" stroke="#b84a09" stroke-width="1.51"/><path d="M1979,-73L1887,-28L1999,75Z" fill="#ca8f57" stroke="#ca8f57" stroke-width="1.51"/><path d="M1986,471L1794,580L2008,668Z" fill="#c46114" stroke="#c46114" stroke-width="1.51"/><path d="M1897,1018L1955,1095L2014,971Z" fill="#a13904" stroke="#a13904" stroke-width="1.51"/><path d="M1924,898L1897,1018L2014,971Z" fill="#aa3d04" stroke="#aa3d04" stroke-width="1.51"/><path d="M1947,-227L1831,-153L1979,-73Z" fill="#cf9466" stroke="#cf9466" stroke-width="1.51"/><path d="M1856,787L1988,750L2008,668Z" fill="#bb500c" stroke="#bb500c" stroke-width="1.51"/><path d="M1794,580L1856,787L2008,668Z" fill="#c3580e" stroke="#c3580e" stroke-width="1.51"/><path d="M1887,-28L1937,145L1999,75Z" fill="#ca8c50" stroke="#ca8c50" stroke-width="1.51"/><path d="M1984,380L1826,474L1986,471Z" fill="#c76f1f" stroke="#c76f1f" stroke-width="1.51"/><path d="M1872,925L1897,1018L1924,898Z" fill="#af3f03" stroke="#af3f03" stroke-width="1.51"/><path d="M1831,-153L1887,-28L1979,-73Z" fill="#d0945f" stroke="#d0945f" stroke-width="1.51"/><path d="M1859,278L1826,474L1984,380Z" fill="#ca7725" stroke="#ca7725" stroke-width="1.51"/><path d="M1887,-28L1773,70L1937,145Z" fill="#d18f51" stroke="#d18f51" stroke-width="1.51"/><path d="M1897,1018L1774,1152L1955,1095Z" fill="#a03704" stroke="#a03704" stroke-width="1.51"/><path d="M1774,1152L1858,1224L1955,1095Z" fill="#983404" stroke="#983404" stroke-width="1.51"/><path d="M1785,218L1859,278L1937,145Z" fill="#cf863d" stroke="#cf863d" stroke-width="1.51"/><path d="M1858,1224L1696,1263L1941,1309Z" fill="#8d3105" stroke="#8d3105" stroke-width="1.51"/><path d="M1737,-219L1831,-153L1947,-227Z" fill="#d7996b" stroke="#d7996b" stroke-width="1.51"/><path d="M1856,787L1872,925L1924,898Z" fill="#b74606" stroke="#b74606" stroke-width="1.51"/><path d="M1763,182L1785,218L1937,145Z" fill="#d38a43" stroke="#d38a43" stroke-width="1.51"/><path d="M1773,70L1763,182L1937,145Z" fill="#d38e4b" stroke="#d38e4b" stroke-width="1.51"/><path d="M352,-258L649,-197L1050,-238Z" fill="#ffde96" stroke="#ffde96" stroke-width="1.51"/><path d="M1736,441L1826,474L1859,278Z" fill="#d27824" stroke="#d27824" stroke-width="1.51"/><path d="M1872,925L1635,1012L1897,1018Z" fill="#b34004" stroke="#b34004" stroke-width="1.51"/><path d="M1635,1012L1774,1152L1897,1018Z" fill="#ac3d04" stroke="#ac3d04" stroke-width="1.51"/><path d="M1635,1012L1683,1125L1774,1152Z" fill="#ae3e04" stroke="#ae3e04" stroke-width="1.51"/><path d="M1794,580L1698,788L1856,787Z" fill="#cb580d" stroke="#cb580d" stroke-width="1.51"/><path d="M1685,322L1736,441L1859,278Z" fill="#d68028" stroke="#d68028" stroke-width="1.51"/><path d="M1856,787L1698,788L1872,925Z" fill="#c04c07" stroke="#c04c07" stroke-width="1.51"/><path d="M1831,-153L1773,70L1887,-28Z" fill="#d6955c" stroke="#d6955c" stroke-width="1.51"/><path d="M1646,-104L1773,70L1831,-153Z" fill="#dd9a5f" stroke="#dd9a5f" stroke-width="1.51"/><path d="M1698,788L1645,826L1872,925Z" fill="#c54e06" stroke="#c54e06" stroke-width="1.51"/><path d="M1645,826L1635,1012L1872,925Z" fill="#c14803" stroke="#c14803" stroke-width="1.51"/><path d="M1641,655L1698,788L1794,580Z" fill="#d35f0e" stroke="#d35f0e" stroke-width="1.51"/><path d="M1785,218L1685,322L1859,278Z" fill="#d68535" stroke="#d68535" stroke-width="1.51"/><path d="M1774,1152L1696,1263L1858,1224Z" fill="#983505" stroke="#983505" stroke-width="1.51"/><path d="M1050,-238L1286,-154L1613,-232Z" fill="#fcb477" stroke="#fcb477" stroke-width="1.51"/><path d="M1736,441L1794,580L1826,474Z" fill="#d26f1a" stroke="#d26f1a" stroke-width="1.51"/><path d="M1737,-219L1646,-104L1831,-153Z" fill="#df9d68" stroke="#df9d68" stroke-width="1.51"/><path d="M649,-197L813,-195L1050,-238Z" fill="#ffd48b" stroke="#ffd48b" stroke-width="1.51"/><path d="M1646,-104L1612,2L1672,75Z" fill="#e69d5b" stroke="#e69d5b" stroke-width="1.51"/><path d="M1646,-104L1672,75L1773,70Z" fill="#e19958" stroke="#e19958" stroke-width="1.51"/><path d="M1672,75L1763,182L1773,70Z" fill="#db934e" stroke="#db934e" stroke-width="1.51"/><path d="M1736,441L1614,497L1794,580Z" fill="#d97119" stroke="#d97119" stroke-width="1.51"/><path d="M1614,497L1641,655L1794,580Z" fill="#d96b14" stroke="#d96b14" stroke-width="1.51"/><path d="M1618,237L1685,322L1763,182Z" fill="#de8b39" stroke="#de8b39" stroke-width="1.51"/><path d="M1683,1125L1696,1263L1774,1152Z" fill="#a13904" stroke="#a13904" stroke-width="1.51"/><path d="M1763,182L1685,322L1785,218Z" fill="#d9893a" stroke="#d9893a" stroke-width="1.51"/><path d="M1672,75L1618,237L1763,182Z" fill="#df9247" stroke="#df9247" stroke-width="1.51"/><path d="M1685,322L1621,323L1736,441Z" fill="#dd8228" stroke="#dd8228" stroke-width="1.51"/><path d="M1621,323L1614,497L1736,441Z" fill="#df7d22" stroke="#df7d22" stroke-width="1.51"/><path d="M1613,-232L1646,-104L1737,-219Z" fill="#e6a16c" stroke="#e6a16c" stroke-width="1.51"/><path d="M1286,-154L1392,-142L1613,-232Z" fill="#f6ac71" stroke="#f6ac71" stroke-width="1.51"/><path d="M1614,497L1540,576L1641,655Z" fill="#e16f14" stroke="#e16f14" stroke-width="1.51"/><path d="M1524,877L1635,1012L1645,826Z" fill="#cc4e03" stroke="#cc4e03" stroke-width="1.51"/><path d="M1635,1012L1596,1035L1683,1125Z" fill="#b74203" stroke="#b74203" stroke-width="1.51"/><path d="M1618,237L1621,323L1685,322Z" fill="#e18a32" stroke="#e18a32" stroke-width="1.51"/><path d="M1683,1125L1574,1196L1696,1263Z" fill="#a53a04" stroke="#a53a04" stroke-width="1.51"/><path d="M1574,1196L1609,1308L1696,1263Z" fill="#9f3905" stroke="#9f3905" stroke-width="1.51"/><path d="M1568,722L1645,826L1698,788Z" fill="#d35809" stroke="#d35809" stroke-width="1.51"/><path d="M1641,655L1568,722L1698,788Z" fill="#d75d0c" stroke="#d75d0c" stroke-width="1.51"/><path d="M1596,1035L1574,1196L1683,1125Z" fill="#b13f04" stroke="#b13f04" stroke-width="1.51"/><path d="M1612,2L1452,9L1618,237Z" fill="#ec9c53" stroke="#ec9c53" stroke-width="1.51"/><path d="M1612,2L1618,237L1672,75Z" fill="#e5984f" stroke="#e5984f" stroke-width="1.51"/><path d="M1552,-25L1452,9L1612,2Z" fill="#eea25d" stroke="#eea25d" stroke-width="1.51"/><path d="M1468,344L1614,497L1621,323Z" fill="#e68426" stroke="#e68426" stroke-width="1.51"/><path d="M1524,877L1596,1035L1635,1012Z" fill="#c64902" stroke="#c64902" stroke-width="1.51"/><path d="M1568,722L1524,877L1645,826Z" fill="#d65807" stroke="#d65807" stroke-width="1.51"/><path d="M1613,-232L1552,-25L1646,-104Z" fill="#eba267" stroke="#eba267" stroke-width="1.51"/><path d="M1552,-25L1612,2L1646,-104Z" fill="#eaa05f" stroke="#eaa05f" stroke-width="1.51"/><path d="M1392,-142L1552,-25L1613,-232Z" fill="#f1a76a" stroke="#f1a76a" stroke-width="1.51"/><path d="M1468,344L1447,483L1614,497Z" fill="#e98222" stroke="#e98222" stroke-width="1.51"/><path d="M1452,9L1369,236L1618,237Z" fill="#ee9d4c" stroke="#ee9d4c" stroke-width="1.51"/><path d="M1540,576L1568,722L1641,655Z" fill="#df6710" stroke="#df6710" stroke-width="1.51"/><path d="M1392,-142L1394,-121L1552,-25Z" fill="#f4ab69" stroke="#f4ab69" stroke-width="1.51"/><path d="M1524,877L1450,924L1596,1035Z" fill="#ce4f03" stroke="#ce4f03" stroke-width="1.51"/><path d="M1618,237L1468,344L1621,323Z" fill="#e88d31" stroke="#e88d31" stroke-width="1.51"/><path d="M1369,236L1468,344L1618,237Z" fill="#ed9439" stroke="#ed9439" stroke-width="1.51"/><path d="M1450,924L1437,1002L1596,1035Z" fill="#ca4e04" stroke="#ca4e04" stroke-width="1.51"/><path d="M1437,1002L1574,1196L1596,1035Z" fill="#bc4604" stroke="#bc4604" stroke-width="1.51"/><path d="M1574,1196L1483,1345L1609,1308Z" fill="#a03b06" stroke="#a03b06" stroke-width="1.51"/><path d="M1447,483L1540,576L1614,497Z" fill="#e77819" stroke="#e77819" stroke-width="1.51"/><path d="M1437,1002L1388,1173L1574,1196Z" fill="#bb4705" stroke="#bb4705" stroke-width="1.51"/><path d="M1447,483L1465,552L1540,576Z" fill="#ea7919" stroke="#ea7919" stroke-width="1.51"/><path d="M1540,576L1431,694L1568,722Z" fill="#e36a11" stroke="#e36a11" stroke-width="1.51"/><path d="M1431,694L1524,877L1568,722Z" fill="#dd600b" stroke="#dd600b" stroke-width="1.51"/><path d="M1388,1173L1483,1345L1574,1196Z" fill="#ab4107" stroke="#ab4107" stroke-width="1.51"/><path d="M1394,-121L1452,9L1552,-25Z" fill="#f2a863" stroke="#f2a863" stroke-width="1.51"/><path d="M1465,552L1431,694L1540,576Z" fill="#e77215" stroke="#e77215" stroke-width="1.51"/><path d="M1431,694L1450,924L1524,877Z" fill="#da5c09" stroke="#da5c09" stroke-width="1.51"/><path d="M1344,223L1369,236L1452,9Z" fill="#f3a24e" stroke="#f3a24e" stroke-width="1.51"/><path d="M767,1282L666,1313L1184,1346Z" fill="#b4651c" stroke="#b4651c" stroke-width="1.51"/><path d="M1431,694L1268,907L1450,924Z" fill="#dd610c" stroke="#dd610c" stroke-width="1.51"/><path d="M1247,87L1344,223L1452,9Z" fill="#f5a756" stroke="#f5a756" stroke-width="1.51"/><path d="M1394,-121L1359,-34L1452,9Z" fill="#f5ac65" stroke="#f5ac65" stroke-width="1.51"/><path d="M1351,327L1447,483L1468,344Z" fill="#ee8d2a" stroke="#ee8d2a" stroke-width="1.51"/><path d="M1369,236L1351,327L1468,344Z" fill="#f09636" stroke="#f09636" stroke-width="1.51"/><path d="M1276,1272L1184,1346L1483,1345Z" fill="#a8470c" stroke="#a8470c" stroke-width="1.51"/><path d="M1388,1173L1352,1186L1483,1345Z" fill="#af4609" stroke="#af4609" stroke-width="1.51"/><path d="M1352,1186L1276,1272L1483,1345Z" fill="#ac470a" stroke="#ac470a" stroke-width="1.51"/><path d="M1274,679L1268,907L1431,694Z" fill="#e86b11" stroke="#e86b11" stroke-width="1.51"/><path d="M1359,-34L1247,87L1452,9Z" fill="#f7ab5f" stroke="#f7ab5f" stroke-width="1.51"/><path d="M1274,679L1431,694L1465,552Z" fill="#ea7316" stroke="#ea7316" stroke-width="1.51"/><path d="M1252,537L1274,679L1465,552Z" fill="#f07c1a" stroke="#f07c1a" stroke-width="1.51"/><path d="M1447,483L1252,537L1465,552Z" fill="#ef7f1d" stroke="#ef7f1d" stroke-width="1.51"/><path d="M1231,1022L1388,1173L1437,1002Z" fill="#c85208" stroke="#c85208" stroke-width="1.51"/><path d="M1351,327L1252,537L1447,483Z" fill="#f28a26" stroke="#f28a26" stroke-width="1.51"/><path d="M1268,907L1437,1002L1450,924Z" fill="#d55707" stroke="#d55707" stroke-width="1.51"/><path d="M1231,1022L1352,1186L1388,1173Z" fill="#c14f09" stroke="#c14f09" stroke-width="1.51"/><path d="M1268,907L1231,1022L1437,1002Z" fill="#d55909" stroke="#d55909" stroke-width="1.51"/><path d="M1089,1299L767,1282L1184,1346Z" fill="#b35b15" stroke="#b35b15" stroke-width="1.51"/><path d="M1050,-238L1138,-161L1286,-154Z" fill="#ffbe7b" stroke="#ffbe7b" stroke-width="1.51"/><path d="M1392,-142L1286,-154L1394,-121Z" fill="#f9b06f" stroke="#f9b06f" stroke-width="1.51"/><path d="M1286,-154L1359,-34L1394,-121Z" fill="#f9b06c" stroke="#f9b06c" stroke-width="1.51"/><path d="M952,1264L767,1282L1089,1299Z" fill="#b96118" stroke="#b96118" stroke-width="1.51"/><path d="M1155,764L1268,907L1274,679Z" fill="#ea6f13" stroke="#ea6f13" stroke-width="1.51"/><path d="M1247,87L1228,201L1344,223Z" fill="#f9a84f" stroke="#f9a84f" stroke-width="1.51"/><path d="M1210,27L1247,87L1359,-34Z" fill="#fbb061" stroke="#fbb061" stroke-width="1.51"/><path d="M1344,223L1351,327L1369,236Z" fill="#f39c3e" stroke="#f39c3e" stroke-width="1.51"/><path d="M1095,468L1252,537L1351,327Z" fill="#f7922a" stroke="#f7922a" stroke-width="1.51"/><path d="M1102,290L1095,468L1351,327Z" fill="#f99e33" stroke="#f99e33" stroke-width="1.51"/><path d="M1344,223L1228,201L1351,327Z" fill="#f69f41" stroke="#f69f41" stroke-width="1.51"/><path d="M1231,1022L1131,1121L1352,1186Z" fill="#c7560c" stroke="#c7560c" stroke-width="1.51"/><path d="M1286,-154L1210,27L1359,-34Z" fill="#fcb369" stroke="#fcb369" stroke-width="1.51"/><path d="M1131,1121L1276,1272L1352,1186Z" fill="#bc500c" stroke="#bc500c" stroke-width="1.51"/><path d="M1228,201L1102,290L1351,327Z" fill="#f9a240" stroke="#f9a240" stroke-width="1.51"/><path d="M1252,537L1238,544L1274,679Z" fill="#f4811d" stroke="#f4811d" stroke-width="1.51"/><path d="M1095,468L1238,544L1252,537Z" fill="#f78c24" stroke="#f78c24" stroke-width="1.51"/><path d="M1155,764L1130,919L1268,907Z" fill="#e56b12" stroke="#e56b12" stroke-width="1.51"/><path d="M1238,544L1202,580L1274,679Z" fill="#f4811d" stroke="#f4811d" stroke-width="1.51"/><path d="M1131,1121L1089,1299L1276,1272Z" fill="#ba5510" stroke="#ba5510" stroke-width="1.51"/><path d="M1147,-71L1210,27L1286,-154Z" fill="#feb86d" stroke="#feb86d" stroke-width="1.51"/><path d="M1138,-161L1147,-71L1286,-154Z" fill="#ffba73" stroke="#ffba73" stroke-width="1.51"/><path d="M1130,919L1231,1022L1268,907Z" fill="#dd610d" stroke="#dd610d" stroke-width="1.51"/><path d="M1089,1299L1184,1346L1276,1272Z" fill="#af5010" stroke="#af5010" stroke-width="1.51"/><path d="M1202,580L1155,764L1274,679Z" fill="#f17b1a" stroke="#f17b1a" stroke-width="1.51"/><path d="M813,-195L895,-193L1050,-238Z" fill="#ffce86" stroke="#ffce86" stroke-width="1.51"/><path d="M1088,1144L1089,1299L1131,1121Z" fill="#c15b11" stroke="#c15b11" stroke-width="1.51"/><path d="M1122,1042L1131,1121L1231,1022Z" fill="#d05e0e" stroke="#d05e0e" stroke-width="1.51"/><path d="M1210,27L1228,201L1247,87Z" fill="#faaf5a" stroke="#faaf5a" stroke-width="1.51"/><path d="M1210,27L979,61L1228,201Z" fill="#fdb55e" stroke="#fdb55e" stroke-width="1.51"/><path d="M979,61L1013,248L1228,201Z" fill="#feb556" stroke="#feb556" stroke-width="1.51"/><path d="M1130,919L1122,1042L1231,1022Z" fill="#d8620f" stroke="#d8620f" stroke-width="1.51"/><path d="M1095,468L1202,580L1238,544Z" fill="#f88c23" stroke="#f88c23" stroke-width="1.51"/><path d="M1013,248L1102,290L1228,201Z" fill="#fcac48" stroke="#fcac48" stroke-width="1.51"/><path d="M1000,630L1155,764L1202,580Z" fill="#f5831d" stroke="#f5831d" stroke-width="1.51"/><path d="M1147,-71L979,61L1210,27Z" fill="#ffbb68" stroke="#ffbb68" stroke-width="1.51"/><path d="M1047,519L1000,630L1202,580Z" fill="#f98e23" stroke="#f98e23" stroke-width="1.51"/><path d="M1095,468L1047,519L1202,580Z" fill="#fa9126" stroke="#fa9126" stroke-width="1.51"/><path d="M1075,1016L1122,1042L1130,919Z" fill="#da6611" stroke="#da6611" stroke-width="1.51"/><path d="M1000,630L1025,766L1155,764Z" fill="#f3811c" stroke="#f3811c" stroke-width="1.51"/><path d="M1025,766L1130,919L1155,764Z" fill="#eb7516" stroke="#eb7516" stroke-width="1.51"/><path d="M1000,316L1095,468L1102,290Z" fill="#fca637" stroke="#fca637" stroke-width="1.51"/><path d="M1025,766L966,870L1130,919Z" fill="#ea7618" stroke="#ea7618" stroke-width="1.51"/><path d="M970,-92L979,61L1147,-71Z" fill="#ffc26f" stroke="#ffc26f" stroke-width="1.51"/><path d="M1138,-161L970,-92L1147,-71Z" fill="#ffc175" stroke="#ffc175" stroke-width="1.51"/><path d="M979,61L954,208L1013,248Z" fill="#ffba59" stroke="#ffba59" stroke-width="1.51"/><path d="M1122,1042L1088,1144L1131,1121Z" fill="#cc5f11" stroke="#cc5f11" stroke-width="1.51"/><path d="M1050,-238L970,-92L1138,-161Z" fill="#ffc47c" stroke="#ffc47c" stroke-width="1.51"/><path d="M1075,1016L1088,1144L1122,1042Z" fill="#d16211" stroke="#d16211" stroke-width="1.51"/><path d="M966,870L1075,1016L1130,919Z" fill="#e36e13" stroke="#e36e13" stroke-width="1.51"/><path d="M1088,1144L952,1264L1089,1299Z" fill="#bc5c13" stroke="#bc5c13" stroke-width="1.51"/><path d="M966,870L937,961L1075,1016Z" fill="#e47115" stroke="#e47115" stroke-width="1.51"/><path d="M1075,1016L946,1092L1088,1144Z" fill="#d16513" stroke="#d16513" stroke-width="1.51"/><path d="M1000,316L946,496L1095,468Z" fill="#fda232" stroke="#fda232" stroke-width="1.51"/><path d="M1013,248L1000,316L1102,290Z" fill="#feae44" stroke="#feae44" stroke-width="1.51"/><path d="M946,496L1047,519L1095,468Z" fill="#fc9a2b" stroke="#fc9a2b" stroke-width="1.51"/><path d="M946,1092L952,1264L1088,1144Z" fill="#c76314" stroke="#c76314" stroke-width="1.51"/><path d="M937,961L946,1092L1075,1016Z" fill="#da6d15" stroke="#da6d15" stroke-width="1.51"/><path d="M442,1279L208,1335L666,1313Z" fill="#b87e3f" stroke="#b87e3f" stroke-width="1.51"/><path d="M946,496L1000,630L1047,519Z" fill="#fd9627" stroke="#fd9627" stroke-width="1.51"/><path d="M895,-193L970,-92L1050,-238Z" fill="#ffc980" stroke="#ffc980" stroke-width="1.51"/><path d="M1000,630L872,699L1025,766Z" fill="#f78921" stroke="#f78921" stroke-width="1.51"/><path d="M883,92L954,208L979,61Z" fill="#ffc062" stroke="#ffc062" stroke-width="1.51"/><path d="M821,414L946,496L1000,316Z" fill="#ffaa38" stroke="#ffaa38" stroke-width="1.51"/><path d="M872,699L966,870L1025,766Z" fill="#f2821e" stroke="#f2821e" stroke-width="1.51"/><path d="M872,699L835,815L966,870Z" fill="#f18621" stroke="#f18621" stroke-width="1.51"/><path d="M828,309L821,414L1000,316Z" fill="#feb340" stroke="#feb340" stroke-width="1.51"/><path d="M954,208L1000,316L1013,248Z" fill="#ffb34a" stroke="#ffb34a" stroke-width="1.51"/><path d="M895,-193L894,-107L970,-92Z" fill="#ffcc7e" stroke="#ffcc7e" stroke-width="1.51"/><path d="M970,-92L894,-107L979,61Z" fill="#ffc874" stroke="#ffc874" stroke-width="1.51"/><path d="M894,-107L883,92L979,61Z" fill="#ffc76f" stroke="#ffc76f" stroke-width="1.51"/><path d="M954,208L828,309L1000,316Z" fill="#ffb649" stroke="#ffb649" stroke-width="1.51"/><path d="M946,496L864,674L1000,630Z" fill="#fc9528" stroke="#fc9528" stroke-width="1.51"/><path d="M864,674L872,699L1000,630Z" fill="#f99026" stroke="#f99026" stroke-width="1.51"/><path d="M797,612L864,674L946,496Z" fill="#fc9a2d" stroke="#fc9a2d" stroke-width="1.51"/><path d="M946,1092L767,1282L952,1264Z" fill="#c2681a" stroke="#c2681a" stroke-width="1.51"/><path d="M771,-25L883,92L894,-107Z" fill="#ffcd75" stroke="#ffcd75" stroke-width="1.51"/><path d="M835,815L937,961L966,870Z" fill="#ea7c1c" stroke="#ea7c1c" stroke-width="1.51"/><path d="M703,1098L767,1282L946,1092Z" fill="#ca711f" stroke="#ca711f" stroke-width="1.51"/><path d="M937,961L713,1051L946,1092Z" fill="#da751c" stroke="#da751c" stroke-width="1.51"/><path d="M883,92L828,309L954,208Z" fill="#ffbe58" stroke="#ffbe58" stroke-width="1.51"/><path d="M835,815L810,820L937,961Z" fill="#ed8120" stroke="#ed8120" stroke-width="1.51"/><path d="M821,414L797,612L946,496Z" fill="#ffa434" stroke="#ffa434" stroke-width="1.51"/><path d="M713,1051L703,1098L946,1092Z" fill="#d57821" stroke="#d57821" stroke-width="1.51"/><path d="M810,820L713,1051L937,961Z" fill="#e67e20" stroke="#e67e20" stroke-width="1.51"/><path d="M714,257L828,309L883,92Z" fill="#ffc35a" stroke="#ffc35a" stroke-width="1.51"/><path d="M771,-25L761,14L883,92Z" fill="#ffce74" stroke="#ffce74" stroke-width="1.51"/><path d="M813,-195L894,-107L895,-193Z" fill="#ffd085" stroke="#ffd085" stroke-width="1.51"/><path d="M813,-195L771,-25L894,-107Z" fill="#ffd281" stroke="#ffd281" stroke-width="1.51"/><path d="M750,697L810,820L835,815Z" fill="#f38e28" stroke="#f38e28" stroke-width="1.51"/><path d="M750,697L835,815L872,699Z" fill="#f79029" stroke="#f79029" stroke-width="1.51"/><path d="M761,14L714,257L883,92Z" fill="#ffcb6b" stroke="#ffcb6b" stroke-width="1.51"/><path d="M864,674L750,697L872,699Z" fill="#f8942a" stroke="#f8942a" stroke-width="1.51"/><path d="M797,612L750,697L864,674Z" fill="#f9982d" stroke="#f9982d" stroke-width="1.51"/><path d="M606,148L714,257L761,14Z" fill="#ffd06e" stroke="#ffd06e" stroke-width="1.51"/><path d="M623,852L713,1051L810,820Z" fill="#ea8929" stroke="#ea8929" stroke-width="1.51"/><path d="M649,-197L771,-25L813,-195Z" fill="#ffd989" stroke="#ffd989" stroke-width="1.51"/><path d="M646,626L797,612L821,414Z" fill="#fea736" stroke="#fea736" stroke-width="1.51"/><path d="M574,414L646,626L821,414Z" fill="#feb340" stroke="#feb340" stroke-width="1.51"/><path d="M698,305L821,414L828,309Z" fill="#ffbb47" stroke="#ffbb47" stroke-width="1.51"/><path d="M714,257L698,305L828,309Z" fill="#ffc152" stroke="#ffc152" stroke-width="1.51"/><path d="M675,322L574,414L821,414Z" fill="#febd49" stroke="#febd49" stroke-width="1.51"/><path d="M698,305L675,322L821,414Z" fill="#febe4a" stroke="#febe4a" stroke-width="1.51"/><path d="M750,697L623,852L810,820Z" fill="#f3922c" stroke="#f3922c" stroke-width="1.51"/><path d="M703,1098L588,1184L767,1282Z" fill="#c77827" stroke="#c77827" stroke-width="1.51"/><path d="M646,626L750,697L797,612Z" fill="#fa9f33" stroke="#fa9f33" stroke-width="1.51"/><path d="M623,852L632,1043L713,1051Z" fill="#e2872a" stroke="#e2872a" stroke-width="1.51"/><path d="M580,17L606,148L761,14Z" fill="#ffd77a" stroke="#ffd77a" stroke-width="1.51"/><path d="M588,1184L666,1313L767,1282Z" fill="#bc7528" stroke="#bc7528" stroke-width="1.51"/><path d="M649,-197L579,-94L771,-25Z" fill="#ffdd8a" stroke="#ffdd8a" stroke-width="1.51"/><path d="M580,17L761,14L771,-25Z" fill="#ffd67c" stroke="#ffd67c" stroke-width="1.51"/><path d="M579,-94L580,17L771,-25Z" fill="#ffdc84" stroke="#ffdc84" stroke-width="1.51"/><path d="M571,715L623,852L750,697Z" fill="#f69b33" stroke="#f69b33" stroke-width="1.51"/><path d="M646,626L571,715L750,697Z" fill="#f9a136" stroke="#f9a136" stroke-width="1.51"/><path d="M632,1043L703,1098L713,1051Z" fill="#d78028" stroke="#d78028" stroke-width="1.51"/><path d="M675,322L698,305L714,257Z" fill="#ffc554" stroke="#ffc554" stroke-width="1.51"/><path d="M606,148L675,322L714,257Z" fill="#ffcb5f" stroke="#ffcb5f" stroke-width="1.51"/><path d="M352,-258L424,-175L649,-197Z" fill="#ffe9a8" stroke="#ffe9a8" stroke-width="1.51"/><path d="M632,1043L588,1184L703,1098Z" fill="#d2802b" stroke="#d2802b" stroke-width="1.51"/><path d="M623,852L530,1031L632,1043Z" fill="#e48b32" stroke="#e48b32" stroke-width="1.51"/><path d="M574,414L462,512L646,626Z" fill="#ffb64b" stroke="#ffb64b" stroke-width="1.51"/><path d="M445,361L574,414L675,322Z" fill="#ffc657" stroke="#ffc657" stroke-width="1.51"/><path d="M515,157L445,361L675,322Z" fill="#ffce66" stroke="#ffce66" stroke-width="1.51"/><path d="M606,148L515,157L675,322Z" fill="#ffd16b" stroke="#ffd16b" stroke-width="1.51"/><path d="M588,1184L442,1279L666,1313Z" fill="#be7b33" stroke="#be7b33" stroke-width="1.51"/><path d="M571,715L526,745L623,852Z" fill="#f69d3c" stroke="#f69d3c" stroke-width="1.51"/><path d="M530,1031L588,1184L632,1043Z" fill="#d58432" stroke="#d58432" stroke-width="1.51"/><path d="M462,512L465,628L646,626Z" fill="#feb04a" stroke="#feb04a" stroke-width="1.51"/><path d="M424,-175L579,-94L649,-197Z" fill="#ffe49b" stroke="#ffe49b" stroke-width="1.51"/><path d="M465,628L571,715L646,626Z" fill="#fba943" stroke="#fba943" stroke-width="1.51"/><path d="M23,-195L157,-195L352,-258Z" fill="#fff5c2" stroke="#fff5c2" stroke-width="1.51"/><path d="M-179,-259L23,-195L352,-258Z" fill="#fffacc" stroke="#fffacc" stroke-width="1.51"/><path d="M455,832L530,1031L623,852Z" fill="#eb933b" stroke="#eb933b" stroke-width="1.51"/><path d="M580,17L515,157L606,148Z" fill="#ffd97d" stroke="#ffd97d" stroke-width="1.51"/><path d="M526,745L455,832L623,852Z" fill="#f39b3f" stroke="#f39b3f" stroke-width="1.51"/><path d="M530,1031L451,1190L588,1184Z" fill="#cf8438" stroke="#cf8438" stroke-width="1.51"/><path d="M451,1190L442,1279L588,1184Z" fill="#c4813b" stroke="#c4813b" stroke-width="1.51"/><path d="M424,-175L454,-62L579,-94Z" fill="#ffe79d" stroke="#ffe79d" stroke-width="1.51"/><path d="M424,96L515,157L580,17Z" fill="#ffdd86" stroke="#ffdd86" stroke-width="1.51"/><path d="M579,-94L454,-62L580,17Z" fill="#ffe291" stroke="#ffe291" stroke-width="1.51"/><path d="M465,628L526,745L571,715Z" fill="#faa745" stroke="#faa745" stroke-width="1.51"/><path d="M454,-62L424,96L580,17Z" fill="#ffe290" stroke="#ffe290" stroke-width="1.51"/><path d="M364,221L445,361L515,157Z" fill="#ffd676" stroke="#ffd676" stroke-width="1.51"/><path d="M445,361L462,512L574,414Z" fill="#ffc359" stroke="#ffc359" stroke-width="1.51"/><path d="M455,832L392,1034L530,1031Z" fill="#e79242" stroke="#e79242" stroke-width="1.51"/><path d="M330,1261L208,1335L442,1279Z" fill="#bb844a" stroke="#bb844a" stroke-width="1.51"/><path d="M392,1034L388,1167L451,1190Z" fill="#d18a44" stroke="#d18a44" stroke-width="1.51"/><path d="M326,933L392,1034L455,832Z" fill="#eb984a" stroke="#eb984a" stroke-width="1.51"/><path d="M465,628L361,752L526,745Z" fill="#faa94c" stroke="#faa94c" stroke-width="1.51"/><path d="M392,1034L451,1190L530,1031Z" fill="#d68a40" stroke="#d68a40" stroke-width="1.51"/><path d="M361,752L455,832L526,745Z" fill="#f6a34a" stroke="#f6a34a" stroke-width="1.51"/><path d="M424,96L364,221L515,157Z" fill="#ffdd85" stroke="#ffdd85" stroke-width="1.51"/><path d="M335,-14L359,81L424,96Z" fill="#ffe698" stroke="#ffe698" stroke-width="1.51"/><path d="M364,221L330,340L445,361Z" fill="#ffd472" stroke="#ffd472" stroke-width="1.51"/><path d="M330,340L363,526L445,361Z" fill="#ffcb68" stroke="#ffcb68" stroke-width="1.51"/><path d="M335,-14L424,96L454,-62Z" fill="#ffe799" stroke="#ffe799" stroke-width="1.51"/><path d="M445,361L363,526L462,512Z" fill="#ffc35e" stroke="#ffc35e" stroke-width="1.51"/><path d="M363,526L309,557L465,628Z" fill="#ffba5b" stroke="#ffba5b" stroke-width="1.51"/><path d="M309,557L361,752L465,628Z" fill="#fdb358" stroke="#fdb358" stroke-width="1.51"/><path d="M462,512L363,526L465,628Z" fill="#ffb956" stroke="#ffb956" stroke-width="1.51"/><path d="M388,1167L442,1279L451,1190Z" fill="#c58441" stroke="#c58441" stroke-width="1.51"/><path d="M424,-175L335,-14L454,-62Z" fill="#ffeba3" stroke="#ffeba3" stroke-width="1.51"/><path d="M388,1167L330,1261L442,1279Z" fill="#c28445" stroke="#c28445" stroke-width="1.51"/><path d="M361,752L326,933L455,832Z" fill="#f2a14e" stroke="#f2a14e" stroke-width="1.51"/><path d="M359,81L364,221L424,96Z" fill="#fee18e" stroke="#fee18e" stroke-width="1.51"/><path d="M352,-258L195,-72L424,-175Z" fill="#fff0b3" stroke="#fff0b3" stroke-width="1.51"/><path d="M195,-72L335,-14L424,-175Z" fill="#ffeeab" stroke="#ffeeab" stroke-width="1.51"/><path d="M157,-195L195,-72L352,-258Z" fill="#fff3ba" stroke="#fff3ba" stroke-width="1.51"/><path d="M309,557L190,731L361,752Z" fill="#fcb35d" stroke="#fcb35d" stroke-width="1.51"/><path d="M224,886L326,933L361,752Z" fill="#f1a254" stroke="#f1a254" stroke-width="1.51"/><path d="M330,340L257,369L363,526Z" fill="#ffcd6d" stroke="#ffcd6d" stroke-width="1.51"/><path d="M326,933L254,977L392,1034Z" fill="#e6984f" stroke="#e6984f" stroke-width="1.51"/><path d="M177,1142L388,1167L392,1034Z" fill="#d48f4c" stroke="#d48f4c" stroke-width="1.51"/><path d="M254,977L177,1142L392,1034Z" fill="#dd9450" stroke="#dd9450" stroke-width="1.51"/><path d="M222,568L190,731L309,557Z" fill="#ffba64" stroke="#ffba64" stroke-width="1.51"/><path d="M257,369L201,426L363,526Z" fill="#ffcb6d" stroke="#ffcb6d" stroke-width="1.51"/><path d="M359,81L218,96L364,221Z" fill="#fee494" stroke="#fee494" stroke-width="1.51"/><path d="M177,1142L330,1261L388,1167Z" fill="#c98b4d" stroke="#c98b4d" stroke-width="1.51"/><path d="M335,-14L218,96L359,81Z" fill="#ffe89d" stroke="#ffe89d" stroke-width="1.51"/><path d="M190,731L224,886L361,752Z" fill="#f7aa5a" stroke="#f7aa5a" stroke-width="1.51"/><path d="M201,426L309,557L363,526Z" fill="#ffc467" stroke="#ffc467" stroke-width="1.51"/><path d="M156,235L330,340L364,221Z" fill="#ffdb81" stroke="#ffdb81" stroke-width="1.51"/><path d="M218,96L156,235L364,221Z" fill="#ffe291" stroke="#ffe291" stroke-width="1.51"/><path d="M156,235L257,369L330,340Z" fill="#ffd87c" stroke="#ffd87c" stroke-width="1.51"/><path d="M-80,1284L-125,1300L208,1335Z" fill="#bc8c5f" stroke="#bc8c5f" stroke-width="1.51"/><path d="M201,426L222,568L309,557Z" fill="#ffc469" stroke="#ffc469" stroke-width="1.51"/><path d="M195,-72L218,96L335,-14Z" fill="#ffeda7" stroke="#ffeda7" stroke-width="1.51"/><path d="M177,1142L208,1335L330,1261Z" fill="#c28950" stroke="#c28950" stroke-width="1.51"/><path d="M224,886L254,977L326,933Z" fill="#ec9d54" stroke="#ec9d54" stroke-width="1.51"/><path d="M177,1142L61,1235L208,1335Z" fill="#c48c56" stroke="#c48c56" stroke-width="1.51"/><path d="M201,426L116,481L222,568Z" fill="#ffc970" stroke="#ffc970" stroke-width="1.51"/><path d="M58,1062L117,1109L254,977Z" fill="#de995a" stroke="#de995a" stroke-width="1.51"/><path d="M117,1109L177,1142L254,977Z" fill="#db9556" stroke="#db9556" stroke-width="1.51"/><path d="M70,320L201,426L257,369Z" fill="#ffd67b" stroke="#ffd67b" stroke-width="1.51"/><path d="M156,235L70,320L257,369Z" fill="#ffdc83" stroke="#ffdc83" stroke-width="1.51"/><path d="M224,886L58,1062L254,977Z" fill="#e89c59" stroke="#e89c59" stroke-width="1.51"/><path d="M26,771L30,870L190,731Z" fill="#f8b067" stroke="#f8b067" stroke-width="1.51"/><path d="M15,-23L48,94L195,-72Z" fill="#fff2b2" stroke="#fff2b2" stroke-width="1.51"/><path d="M61,1235L-80,1284L208,1335Z" fill="#be8d5b" stroke="#be8d5b" stroke-width="1.51"/><path d="M78,176L156,235L218,96Z" fill="#ffe79a" stroke="#ffe79a" stroke-width="1.51"/><path d="M195,-72L48,94L218,96Z" fill="#ffeea9" stroke="#ffeea9" stroke-width="1.51"/><path d="M23,602L190,731L222,568Z" fill="#ffbc69" stroke="#ffbc69" stroke-width="1.51"/><path d="M8,962L58,1062L224,886Z" fill="#eaa05e" stroke="#eaa05e" stroke-width="1.51"/><path d="M30,870L8,962L224,886Z" fill="#f0a562" stroke="#f0a562" stroke-width="1.51"/><path d="M190,731L30,870L224,886Z" fill="#f5aa60" stroke="#f5aa60" stroke-width="1.51"/><path d="M116,481L23,602L222,568Z" fill="#ffc570" stroke="#ffc570" stroke-width="1.51"/><path d="M48,94L78,176L218,96Z" fill="#ffeba4" stroke="#ffeba4" stroke-width="1.51"/><path d="M70,320L116,481L201,426Z" fill="#ffd37b" stroke="#ffd37b" stroke-width="1.51"/><path d="M23,602L26,771L190,731Z" fill="#feb86b" stroke="#feb86b" stroke-width="1.51"/><path d="M157,-195L23,-195L195,-72Z" fill="#fff6c0" stroke="#fff6c0" stroke-width="1.51"/><path d="M23,-195L15,-23L195,-72Z" fill="#fff6bd" stroke="#fff6bd" stroke-width="1.51"/><path d="M117,1109L61,1235L177,1142Z" fill="#cf9259" stroke="#cf9259" stroke-width="1.51"/><path d="M78,176L70,320L156,235Z" fill="#ffe392" stroke="#ffe392" stroke-width="1.51"/><path d="M26,771L8,835L30,870Z" fill="#f7ae69" stroke="#f7ae69" stroke-width="1.51"/><path d="M70,320L-81,406L116,481Z" fill="#ffd682" stroke="#ffd682" stroke-width="1.51"/><path d="M58,1062L61,1235L117,1109Z" fill="#d4955c" stroke="#d4955c" stroke-width="1.51"/><path d="M-81,406L23,602L116,481Z" fill="#ffcd7b" stroke="#ffcd7b" stroke-width="1.51"/><path d="M-179,-259L-115,-192L23,-195Z" fill="#fffcd5" stroke="#fffcd5" stroke-width="1.51"/><path d="M-45,-33L15,-23L23,-195Z" fill="#fff8c1" stroke="#fff8c1" stroke-width="1.51"/><path d="M23,602L-83,635L26,771Z" fill="#ffbd73" stroke="#ffbd73" stroke-width="1.51"/><path d="M58,1062L-68,1197L61,1235Z" fill="#d0945f" stroke="#d0945f" stroke-width="1.51"/><path d="M-100,245L-99,299L70,320Z" fill="#ffe295" stroke="#ffe295" stroke-width="1.51"/><path d="M-100,245L70,320L78,176Z" fill="#ffe597" stroke="#ffe597" stroke-width="1.51"/><path d="M48,94L-100,245L78,176Z" fill="#ffeaa3" stroke="#ffeaa3" stroke-width="1.51"/><path d="M-128,114L-100,245L48,94Z" fill="#ffedac" stroke="#ffedac" stroke-width="1.51"/><path d="M-99,299L-81,406L70,320Z" fill="#ffde8c" stroke="#ffde8c" stroke-width="1.51"/><path d="M-83,635L-80,759L26,771Z" fill="#feb773" stroke="#feb773" stroke-width="1.51"/><path d="M15,-23L-82,36L48,94Z" fill="#fff2b5" stroke="#fff2b5" stroke-width="1.51"/><path d="M-68,1197L-80,1284L61,1235Z" fill="#c69162" stroke="#c69162" stroke-width="1.51"/><path d="M8,962L-158,1020L58,1062Z" fill="#e59f66" stroke="#e59f66" stroke-width="1.51"/><path d="M-158,1020L-68,1197L58,1062Z" fill="#da9a66" stroke="#da9a66" stroke-width="1.51"/><path d="M-81,406L-83,635L23,602Z" fill="#ffc87b" stroke="#ffc87b" stroke-width="1.51"/><path d="M-115,-192L-45,-33L23,-195Z" fill="#fff9ca" stroke="#fff9ca" stroke-width="1.51"/><path d="M-82,36L-128,114L48,94Z" fill="#fff1b3" stroke="#fff1b3" stroke-width="1.51"/><path d="M-158,1020L-184,1087L-68,1197Z" fill="#da9a6b" stroke="#da9a6b" stroke-width="1.51"/><path d="M-45,-33L-82,36L15,-23Z" fill="#fff5bc" stroke="#fff5bc" stroke-width="1.51"/><path d="M8,835L8,962L30,870Z" fill="#f2a867" stroke="#f2a867" stroke-width="1.51"/><path d="M-80,759L8,835L26,771Z" fill="#fab26e" stroke="#fab26e" stroke-width="1.51"/><path d="M-158,1020L8,962L8,835Z" fill="#efa569" stroke="#efa569" stroke-width="1.51"/><path d="M-242,831L-158,1020L-80,759Z" fill="#f5ac73" stroke="#f5ac73" stroke-width="1.51"/><path d="M-80,759L-158,1020L8,835Z" fill="#f4ab6e" stroke="#f4ab6e" stroke-width="1.51"/><path d="M-128,404L-145,408L-83,635Z" fill="#ffd086" stroke="#ffd086" stroke-width="1.51"/><path d="M-128,404L-83,635L-81,406Z" fill="#ffd085" stroke="#ffd085" stroke-width="1.51"/><path d="M-145,408L-220,639L-83,635Z" fill="#ffc882" stroke="#ffc882" stroke-width="1.51"/><path d="M-175,-87L-82,36L-45,-33Z" fill="#fff7c2" stroke="#fff7c2" stroke-width="1.51"/><path d="M-115,-192L-175,-87L-45,-33Z" fill="#fff9cb" stroke="#fff9cb" stroke-width="1.51"/><path d="M-128,114L-186,140L-100,245Z" fill="#ffedae" stroke="#ffedae" stroke-width="1.51"/><path d="M-99,299L-128,404L-81,406Z" fill="#ffdc8e" stroke="#ffdc8e" stroke-width="1.51"/><path d="M-83,635L-221,696L-80,759Z" fill="#ffbb79" stroke="#ffbb79" stroke-width="1.51"/><path d="M-125,1300L-80,1284L-68,1197Z" fill="#c39065" stroke="#c39065" stroke-width="1.51"/><path d="M-184,1087L-125,1300L-68,1197Z" fill="#cd9468" stroke="#cd9468" stroke-width="1.51"/><path d="M-220,639L-221,696L-83,635Z" fill="#ffc07e" stroke="#ffc07e" stroke-width="1.51"/><path d="M-221,696L-242,831L-80,759Z" fill="#fdb67a" stroke="#fdb67a" stroke-width="1.51"/><path d="M-175,-87L-128,114L-82,36Z" fill="#fff5bf" stroke="#fff5bf" stroke-width="1.51"/><path d="M-175,-87L-186,140L-128,114Z" fill="#fff4be" stroke="#fff4be" stroke-width="1.51"/><path d="M-145,408L-128,404L-99,299Z" fill="#ffdc8f" stroke="#ffdc8f" stroke-width="1.51"/><path d="M-100,245L-186,140L-99,299Z" fill="#ffe8a4" stroke="#ffe8a4" stroke-width="1.51"/><path d="M-186,140L-145,408L-99,299Z" fill="#ffe49d" stroke="#ffe49d" stroke-width="1.51"/><path d="M-179,-259L-175,-87L-115,-192Z" fill="#fffbd5" stroke="#fffbd5" stroke-width="1.51"/><path d="M-186,140L-220,639L-145,408Z" fill="#ffda91" stroke="#ffda91" stroke-width="1.51"/><path d="M-242,831L-184,1087L-158,1020Z" fill="#eba372" stroke="#eba372" stroke-width="1.51"/><path d="M-179,-259L-186,140L-175,-87Z" fill="#fffacc" stroke="#fffacc" stroke-width="1.51"/><path d="M-242,831L-186,140L-179,-259Z" fill="#ffe8a7" stroke="#ffe8a7" stroke-width="1.51"/><path d="M-242,831L-220,639L-186,140Z" fill="#ffcc88" stroke="#ffcc88" stroke-width="1.51"/><path d="M-242,831L-221,696L-220,639Z" fill="#ffb97e" stroke="#ffb97e" stroke-width="1.51"/></svg>